<svg width="100" height="100" viewBox="0 0 100 100" fill="none" xmlns="http://www.w3.org/2000/svg">
<path d="M0 50C0 22.3858 22.3858 0 50 0V0C77.6142 0 100 22.3858 100 50V50C100 77.6142 77.6142 100 50 100V100C22.3858 100 0 77.6142 0 50V50Z" fill="white"/>
<mask id="mask0_2107_23" style="mask-type:luminance" maskUnits="userSpaceOnUse" x="20" y="10" width="59" height="81">
<path d="M78.4193 10H20.9355V91H78.4193V10Z" fill="white"/>
</mask>
<g mask="url(#mask0_2107_23)">
<path d="M66.6498 60.3872C65.3857 59.4119 64.0277 58.5473 62.5869 57.804C62.8628 56.7813 63.0119 55.7059 63.0119 54.6041C63.0119 47.5716 57.0389 41.8676 49.6746 41.8676C42.3103 41.8676 36.3374 47.5716 36.3374 54.6041C36.3374 55.7059 36.4864 56.7813 36.7624 57.804C35.3271 58.5473 33.9636 59.4119 32.6994 60.3872C27.6151 47.8087 28.8407 36.4113 28.8407 36.4113H70.5087C70.5087 36.4113 71.7287 47.8141 66.6443 60.3872H66.6498Z" fill="#0074FF"/>
<path d="M66.6498 60.3872C66.429 60.9354 66.1972 61.4784 65.9487 62.0266C62.8849 68.9063 57.8613 75.9967 49.6746 81.6743C41.4879 76.0019 36.4643 68.9063 33.4005 62.0266C33.1576 61.4784 32.9202 60.93 32.6994 60.3872C33.9636 59.4119 35.3216 58.5473 36.7624 57.804C36.4864 56.7813 36.3374 55.7059 36.3374 54.6041C36.3374 47.5716 42.3103 41.8676 49.6746 41.8676C57.0389 41.8676 63.0119 47.5716 63.0119 54.6041C63.0119 55.7059 62.8628 56.7813 62.5869 57.804C64.0221 58.5473 65.3857 59.4119 66.6498 60.3872Z" fill="white"/>
<path d="M77.8121 29.5317H21.5427C19.6161 44.8619 22.4978 56.9974 27.0521 66.2967C35.4928 83.5194 49.6746 91 49.6746 91C49.6746 91 63.8565 83.5142 72.2972 66.2967C76.8515 56.9974 79.7332 44.8619 77.8066 29.5317H77.8121ZM66.6498 60.3872C66.4291 60.9354 66.1973 61.4784 65.9487 62.0266C62.885 68.9061 57.8615 75.9967 49.6746 81.6743C41.4879 76.0019 36.4644 68.9061 33.4006 62.0266C33.1577 61.4784 32.9203 60.93 32.6995 60.3872C27.6152 47.8087 28.8407 36.4113 28.8407 36.4113H70.5087C70.5087 36.4113 71.7287 47.8141 66.6443 60.3872H66.6498Z" fill="#033C75"/>
<path d="M51.9821 57.1344C53.3346 56.3754 54.2454 54.9783 54.2454 53.3705C54.2454 50.9614 52.1975 49.0055 49.6746 49.0055C47.1517 49.0055 45.1038 50.9614 45.1038 53.3705C45.1038 54.9731 46.0146 56.3701 47.3617 57.1292L47.1629 57.7355L45.1093 65.2741H54.251L52.1643 57.7355L51.9876 57.1344H51.9821Z" fill="#033C75"/>
<path d="M68.7918 26.6534H61.0908C60.2462 21.3553 55.4546 17.2961 49.6746 17.2961C43.8949 17.2961 39.0976 21.3553 38.2585 26.6534H30.563C31.4463 17.3171 39.6661 10 49.6746 10C59.6831 10 67.9086 17.3171 68.7918 26.6534Z" fill="#033C75"/>
</g>
<path d="M40.0725 76.0846C40.6649 81.914 45.8707 86.1595 51.7001 85.5671L75.1665 83.1826C80.9959 82.5903 85.2414 77.3844 84.649 71.555V71.555C84.0567 65.7256 78.8508 61.4802 73.0215 62.0725L49.555 64.4571C43.7257 65.0494 39.4802 70.2552 40.0725 76.0846V76.0846Z" fill="#D53F8C"/>
<path d="M46.9951 80.1723L46.0907 71.2721L49.5244 70.9232C50.1845 70.8561 50.7599 70.9279 51.2507 71.1385C51.7413 71.3463 52.1315 71.6652 52.4213 72.0953C52.7137 72.5222 52.89 73.0312 52.95 73.6222C53.0101 74.2132 52.9384 74.7474 52.735 75.2247C52.5316 75.702 52.2062 76.0907 51.7587 76.3908C51.314 76.6907 50.7574 76.8746 50.0888 76.9425L47.9002 77.1649L47.747 75.6569L49.6381 75.4648C49.9922 75.4288 50.2777 75.3368 50.4945 75.1889C50.7139 75.0379 50.8689 74.845 50.9595 74.6104C51.0527 74.3726 51.0844 74.1074 51.0547 73.8148C51.0247 73.5193 50.9404 73.2673 50.8019 73.059C50.6659 72.8474 50.4755 72.6926 50.2309 72.5945C49.9859 72.4935 49.6849 72.4612 49.328 72.4974L48.0871 72.6235L48.8351 79.9853L46.9951 80.1723Z" fill="#F7FAFC"/>
<path d="M57.0877 79.2784C56.4276 79.3455 55.8422 79.2601 55.3314 79.0222C54.8232 78.7812 54.4126 78.416 54.0995 77.9268C53.7862 77.4347 53.5948 76.8468 53.5253 76.163C53.4552 75.4735 53.5243 74.8576 53.7326 74.3155C53.9405 73.7704 54.2693 73.3301 54.719 72.9946C55.1711 72.656 55.7273 72.4531 56.3874 72.386C57.0475 72.3189 57.6316 72.4059 58.1399 72.647C58.6506 72.8849 59.0627 73.2499 59.376 73.742C59.6891 74.2312 59.8806 74.8206 59.9507 75.5101C60.0202 76.1939 59.9509 76.8083 59.743 77.3533C59.5348 77.8955 59.2045 78.336 58.7524 78.6746C58.3027 79.0101 57.7479 79.2114 57.0877 79.2784ZM56.9505 77.8435C57.2508 77.813 57.4927 77.7006 57.6762 77.5063C57.8594 77.3091 57.9865 77.0532 58.0576 76.7387C58.1315 76.4238 58.1487 76.0723 58.1093 75.6841C58.0698 75.2958 57.9823 74.9549 57.8465 74.6614C57.7136 74.3676 57.5376 74.1425 57.3185 73.9862C57.0994 73.8299 56.8397 73.767 56.5394 73.7975C56.2363 73.8283 55.9903 73.9426 55.8014 74.1404C55.6154 74.3378 55.4854 74.594 55.4115 74.9088C55.3404 75.2234 55.3246 75.5748 55.3641 75.963C55.4035 76.3512 55.4897 76.6923 55.6226 76.9861C55.7583 77.2797 55.9372 77.5044 56.1591 77.6604C56.3836 77.8133 56.6474 77.8743 56.9505 77.8435Z" fill="#F7FAFC"/>
<path d="M60.9857 78.7506L60.3074 72.0755L62.0624 71.8972L62.1808 73.0618L62.2488 73.0549C62.3257 72.6285 62.4936 72.2953 62.7526 72.0554C63.0113 71.8125 63.3234 71.6724 63.6888 71.6353C63.7795 71.6261 63.8778 71.622 63.9838 71.6229C64.0898 71.6238 64.1835 71.6304 64.2649 71.6426L64.4318 73.2853C64.3442 73.2679 64.2242 73.2567 64.072 73.2516C63.9198 73.2466 63.7814 73.2504 63.6567 73.2631C63.3904 73.2902 63.1585 73.3737 62.9609 73.5138C62.7659 73.6507 62.618 73.8297 62.5174 74.0507C62.4196 74.2713 62.3846 74.5179 62.4122 74.7902L62.796 78.5667L60.9857 78.7506Z" fill="#F7FAFC"/>
<path d="M68.5244 71.2405L68.6657 72.6312L64.7349 73.0306L64.5935 71.64L68.5244 71.2405ZM65.3235 69.95L67.1338 69.7661L67.7661 75.9893C67.7835 76.1602 67.8225 76.2909 67.8833 76.3813C67.9437 76.4688 68.0211 76.5268 68.1156 76.5553C68.2129 76.5834 68.3225 76.5913 68.4443 76.5789C68.5293 76.5703 68.6136 76.5544 68.6971 76.5313C68.7803 76.5053 68.8441 76.4856 68.8886 76.4723L69.3133 77.821C69.2256 77.8592 69.1015 77.9055 68.941 77.9598C68.7808 78.0171 68.5836 78.062 68.3493 78.0946C67.9148 78.1563 67.5263 78.1358 67.1838 78.033C66.8442 77.9299 66.5691 77.7442 66.3587 77.4758C66.1482 77.2074 66.0222 76.8543 65.9805 76.4166L65.3235 69.95Z" fill="#F7FAFC"/>
<path d="M71.7774 77.7814C71.361 77.8237 70.9823 77.7875 70.6415 77.6729C70.3004 77.5553 70.0201 77.3599 69.8005 77.0866C69.5835 76.81 69.4526 76.4516 69.4079 76.0112C69.3702 75.6404 69.4051 75.3222 69.5127 75.0566C69.6202 74.791 69.7809 74.5698 69.9948 74.3929C70.2087 74.216 70.4575 74.0737 70.7414 73.9658C71.0281 73.8576 71.3313 73.7712 71.651 73.7065C72.0265 73.6274 72.3287 73.5586 72.5574 73.5002C72.7859 73.439 72.9489 73.3668 73.0464 73.2837C73.1438 73.2006 73.1853 73.0881 73.1709 72.9462L73.1683 72.9201C73.1403 72.6448 73.0337 72.4405 72.8484 72.3072C72.6659 72.1735 72.4203 72.1223 72.1115 72.1537C71.7857 72.1868 71.534 72.287 71.3563 72.4544C71.1784 72.6188 71.0695 72.8143 71.0295 73.0408L69.341 73.0719C69.3848 72.6576 69.5163 72.2901 69.7356 71.9693C69.9546 71.6455 70.2529 71.384 70.6305 71.1846C71.0107 70.982 71.4614 70.8543 71.9827 70.8013C72.3453 70.7645 72.6968 70.7727 73.0371 70.8259C73.3802 70.8788 73.6899 70.9835 73.9663 71.1398C74.2455 71.2958 74.4747 71.5096 74.654 71.7812C74.833 72.0499 74.9427 72.3827 74.983 72.7796L75.4405 77.2818L73.7237 77.4563L73.6296 76.5306L73.5786 76.5358C73.495 76.7551 73.3734 76.9533 73.214 77.1305C73.0542 77.3048 72.8557 77.4493 72.6183 77.5642C72.3807 77.6762 72.1004 77.7485 71.7774 77.7814ZM72.166 76.451C72.4323 76.424 72.662 76.3465 72.8551 76.2185C73.0479 76.0877 73.193 75.9237 73.2903 75.7265C73.3876 75.5293 73.4243 75.3133 73.4005 75.0786L73.3285 74.3703C73.2757 74.4137 73.2013 74.4564 73.1054 74.4983C73.012 74.5371 72.9057 74.5757 72.7866 74.6141C72.6671 74.6497 72.5475 74.6838 72.4277 74.7165C72.3077 74.7462 72.1988 74.7734 72.1011 74.798C71.8919 74.8514 71.7115 74.921 71.5599 75.0066C71.4083 75.0923 71.2946 75.199 71.2189 75.3267C71.1428 75.4515 71.1136 75.6008 71.1313 75.7746C71.1569 76.0267 71.2657 76.2103 71.4577 76.3254C71.6523 76.4374 71.8884 76.4792 72.166 76.451Z" fill="#F7FAFC"/>
<path d="M77.2723 68.1036L78.1766 77.0038L76.3663 77.1877L75.4619 68.2876L77.2723 68.1036Z" fill="#F7FAFC"/>
</svg>
