<svg width="100" height="100" viewBox="0 0 100 100" fill="none" xmlns="http://www.w3.org/2000/svg">
<rect width="100" height="100" fill="white"/>
<mask id="mask0_2122_28" style="mask-type:luminance" maskUnits="userSpaceOnUse" x="20" y="8" width="60" height="85">
<path d="M80 8.7272H20.2839V92.8728H80V8.7272Z" fill="white"/>
</mask>
<g mask="url(#mask0_2122_28)">
<path d="M67.7735 61.0711C66.4603 60.058 65.0495 59.1598 63.5528 58.3876C63.8394 57.3252 63.9943 56.2081 63.9943 55.0635C63.9943 47.7579 57.7893 41.8324 50.1391 41.8324C42.4888 41.8324 36.2838 47.7579 36.2838 55.0635C36.2838 56.2081 36.4387 57.3252 36.7254 58.3876C35.2344 59.1598 33.8179 60.058 32.5046 61.0711C27.2229 48.0042 28.496 36.1642 28.496 36.1642H71.7822C71.7822 36.1642 73.0496 48.0098 67.7677 61.0711H67.7735Z" fill="#0074FF"/>
<path d="M67.7735 61.0711C67.5441 61.6406 67.3033 62.2048 67.0452 62.7743C63.8623 69.9211 58.6437 77.2869 50.1391 83.1849C41.6345 77.2922 36.4158 69.9211 33.2329 62.7743C32.9806 62.2048 32.734 61.6351 32.5046 61.0711C33.8179 60.058 35.2287 59.1598 36.7254 58.3876C36.4387 57.3252 36.2838 56.208 36.2838 55.0635C36.2838 47.7579 42.4888 41.8324 50.1391 41.8324C57.7893 41.8324 63.9943 47.7579 63.9943 55.0635C63.9943 56.208 63.8394 57.3252 63.5528 58.3876C65.0438 59.1598 66.4603 60.058 67.7735 61.0711Z" fill="white"/>
<path d="M79.3694 29.0174H20.9148C18.9134 44.9429 21.9069 57.5497 26.6381 67.2102C35.4066 85.1017 50.1392 92.8728 50.1392 92.8728C50.1392 92.8728 64.8718 85.0963 73.6403 67.2102C78.3715 57.5497 81.3651 44.9429 79.3637 29.0174H79.3694ZM67.7736 61.0711C67.5442 61.6406 67.3034 62.2048 67.0453 62.7743C63.8626 69.9209 58.644 77.2869 50.1392 83.185C41.6346 77.2923 36.4159 69.9209 33.2331 62.7743C32.9808 62.2048 32.7342 61.6351 32.5048 61.0711C27.2231 48.0042 28.4962 36.1642 28.4962 36.1642H71.7823C71.7823 36.1642 73.0497 48.0098 67.7679 61.0711H67.7736Z" fill="#033C75"/>
<path d="M52.5361 57.692C53.9412 56.9036 54.8874 55.4522 54.8874 53.782C54.8874 51.2793 52.7599 49.2474 50.1391 49.2474C47.5182 49.2474 45.3907 51.2793 45.3907 53.782C45.3907 55.4468 46.3369 56.898 47.7363 57.6867L47.5298 58.3165L45.3965 66.1478H54.8931L52.7254 58.3165L52.5419 57.692H52.5361Z" fill="#033C75"/>
<path d="M69.9987 26.0273H61.9986C61.1211 20.5235 56.1435 16.3066 50.1391 16.3066C44.1348 16.3066 39.1513 20.5235 38.2795 26.0273H30.2853C31.2029 16.3285 39.7419 8.7272 50.1391 8.7272C60.5362 8.7272 69.0811 16.3285 69.9987 26.0273Z" fill="#033C75"/>
</g>
</svg>
