<svg width="300" height="300" viewBox="0 0 300 300" fill="none" xmlns="http://www.w3.org/2000/svg">
<rect width="300" height="300" fill="white"/>
<mask id="mask0_2122_28" style="mask-type:luminance" maskUnits="userSpaceOnUse" x="60" y="26" width="180" height="253">
<path d="M240 26.1816H60.8516V278.618H240V26.1816Z" fill="white"/>
</mask>
<g mask="url(#mask0_2122_28)">
<path d="M203.32 183.213C199.381 180.174 195.148 177.479 190.658 175.163C191.518 171.976 191.983 168.624 191.983 165.191C191.983 143.274 173.368 125.497 150.417 125.497C127.466 125.497 108.852 143.274 108.852 165.191C108.852 168.624 109.316 171.976 110.176 175.163C105.703 177.479 101.454 180.174 97.5139 183.213C81.6687 144.013 85.4881 108.493 85.4881 108.493H215.347C215.347 108.493 219.149 144.029 203.303 183.213H203.32Z" fill="#0074FF"/>
<path d="M203.32 183.213C202.632 184.922 201.91 186.614 201.135 188.323C191.587 209.763 175.931 231.861 150.417 249.555C124.903 231.877 109.247 209.763 99.6988 188.323C98.9418 186.614 98.2021 184.905 97.5139 183.213C101.454 180.174 105.686 177.479 110.176 175.163C109.316 171.976 108.852 168.624 108.852 165.19C108.852 143.274 127.466 125.497 150.417 125.497C173.368 125.497 191.983 143.274 191.983 165.19C191.983 168.624 191.518 171.976 190.658 175.163C195.131 177.479 199.381 180.174 203.32 183.213Z" fill="white"/>
<path d="M238.108 87.0522H62.7443C56.74 134.829 65.7207 172.649 79.9143 201.631C106.22 255.305 150.417 278.618 150.417 278.618C150.417 278.618 194.615 255.289 220.921 201.631C235.114 172.649 244.095 134.829 238.091 87.0522H238.108ZM203.321 183.213C202.633 184.922 201.91 186.614 201.136 188.323C191.588 209.763 175.932 231.861 150.417 249.555C124.904 231.877 109.248 209.763 99.6993 188.323C98.9423 186.614 98.2025 184.905 97.5143 183.213C81.6691 144.013 85.4885 108.493 85.4885 108.493H215.347C215.347 108.493 219.149 144.029 203.304 183.213H203.321Z" fill="#033C75"/>
<path d="M157.608 173.076C161.824 170.711 164.662 166.356 164.662 161.346C164.662 153.838 158.28 147.742 150.417 147.742C142.555 147.742 136.172 153.838 136.172 161.346C136.172 166.34 139.011 170.694 143.209 173.06L142.59 174.95L136.189 198.443H164.679L158.176 174.95L157.626 173.076H157.608Z" fill="#033C75"/>
<path d="M209.996 78.0819H185.996C183.363 61.5704 168.43 48.9198 150.417 48.9198C132.405 48.9198 117.454 61.5704 114.839 78.0819H90.8559C93.6086 48.9855 119.226 26.1816 150.417 26.1816C181.609 26.1816 207.243 48.9855 209.996 78.0819Z" fill="#033C75"/>
</g>
</svg>
