<svg width="205" height="47" viewBox="0 0 205 47" fill="none" xmlns="http://www.w3.org/2000/svg">
<g clip-path="url(#clip0_2106_84)">
<mask id="mask0_2106_84" style="mask-type:luminance" maskUnits="userSpaceOnUse" x="0" y="0" width="34" height="47">
<path d="M33.3548 0H0V47H33.3548V0Z" fill="white"/>
</mask>
<g mask="url(#mask0_2106_84)">
<path d="M26.5256 29.237C25.7921 28.6711 25.0041 28.1694 24.1681 27.7381C24.3282 27.1447 24.4147 26.5207 24.4147 25.8814C24.4147 21.8008 20.9489 18.4911 16.6758 18.4911C12.4027 18.4911 8.93689 21.8008 8.93689 25.8814C8.93689 26.5207 9.02338 27.1447 9.18354 27.7381C8.35071 28.1694 7.55952 28.6711 6.82599 29.237C3.87585 21.9384 4.58696 15.3251 4.58696 15.3251H28.7647C28.7647 15.3251 29.4726 21.9415 26.5224 29.237H26.5256Z" fill="#0074FF"/>
<path d="M26.5256 29.237C26.3975 29.5551 26.263 29.8702 26.1188 30.1883C24.341 34.1802 21.4261 38.2944 16.6758 41.5888C11.9255 38.2974 9.01057 34.1802 7.23279 30.1883C7.09185 29.8702 6.95412 29.552 6.82599 29.237C7.55952 28.6711 8.34751 28.1694 9.18354 27.7381C9.02338 27.1447 8.93689 26.5207 8.93689 25.8814C8.93689 21.8008 12.4027 18.4911 16.6758 18.4911C20.9489 18.4911 24.4147 21.8008 24.4147 25.8814C24.4147 26.5207 24.3282 27.1447 24.1681 27.7381C25.0009 28.1694 25.7921 28.6711 26.5256 29.237Z" fill="white"/>
<path d="M33.0025 11.3332H0.35236C-0.765554 20.2285 0.906512 27.2701 3.54915 32.666C8.44683 42.6594 16.6758 47 16.6758 47C16.6758 47 24.9048 42.6564 29.8025 32.666C32.4451 27.2701 34.1172 20.2285 32.9993 11.3332H33.0025ZM26.5256 29.237C26.3975 29.5551 26.263 29.8702 26.1188 30.1883C24.3411 34.1801 21.4262 38.2944 16.6758 41.5888C11.9255 38.2974 9.01059 34.1801 7.23282 30.1883C7.09188 29.8702 6.95414 29.552 6.82601 29.237C3.87587 21.9384 4.58698 15.3251 4.58698 15.3251H28.7647C28.7647 15.3251 29.4726 21.9415 26.5224 29.237H26.5256Z" fill="#033C75"/>
<path d="M18.0147 27.3496C18.7995 26.9092 19.328 26.0985 19.328 25.1656C19.328 23.7677 18.1397 22.6328 16.6758 22.6328C15.2119 22.6328 14.0236 23.7677 14.0236 25.1656C14.0236 26.0955 14.5521 26.9061 15.3337 27.3466L15.2184 27.6984L14.0268 32.0726H19.3312L18.1204 27.6984L18.0179 27.3496H18.0147Z" fill="#033C75"/>
<path d="M27.7685 9.66307H23.3C22.8099 6.58887 20.0296 4.23352 16.6758 4.23352C13.3221 4.23352 10.5385 6.58887 10.0516 9.66307H5.58636C6.09888 4.24575 10.8684 0 16.6758 0C22.4832 0 27.256 4.24575 27.7685 9.66307Z" fill="#033C75"/>
</g>
<path d="M47.5976 33.3548H43.1009L49.9525 13.5073H55.3602L62.2022 33.3548H57.7055L52.7339 18.0428H52.5789L47.5976 33.3548ZM47.3165 25.5535H57.9381V28.8291H47.3165V25.5535Z" fill="#033C75"/>
<path d="M70.5463 33.6456C69.0215 33.6456 67.71 33.3225 66.6117 32.6765C65.5198 32.0239 64.6799 31.1194 64.092 29.9629C63.5105 28.8065 63.2198 27.4755 63.2198 25.9702C63.2198 24.4454 63.5137 23.1081 64.1016 21.958C64.696 20.8016 65.5392 19.9003 66.631 19.2542C67.7229 18.6017 69.0215 18.2754 70.5269 18.2754C71.8255 18.2754 72.9626 18.5112 73.9382 18.9828C74.9138 19.4545 75.6858 20.1167 76.2544 20.9695C76.8229 21.8224 77.1363 22.8238 77.1944 23.9738H73.2986C73.1887 23.2308 72.898 22.6332 72.4264 22.1809C71.9612 21.7222 71.3506 21.4929 70.5947 21.4929C69.9551 21.4929 69.3963 21.6673 68.9182 22.0162C68.4465 22.3586 68.0783 22.8593 67.8134 23.5183C67.5485 24.1773 67.416 24.9752 67.416 25.912C67.416 26.8618 67.5452 27.6694 67.8037 28.3348C68.0686 29.0003 68.4401 29.5075 68.9182 29.8563C69.3963 30.2052 69.9551 30.3797 70.5947 30.3797C71.0664 30.3797 71.4895 30.2827 71.8643 30.0889C72.2455 29.8951 72.5588 29.6141 72.8043 29.2458C73.0563 28.8711 73.221 28.422 73.2986 27.8987H77.1944C77.1298 29.0358 76.8197 30.0372 76.2641 30.903C75.7149 31.7623 74.9558 32.4342 73.9866 32.9187C73.0175 33.4033 71.8707 33.6456 70.5463 33.6456Z" fill="#033C75"/>
<path d="M86.5633 33.6456C85.0386 33.6456 83.7271 33.3225 82.6287 32.6765C81.5369 32.0239 80.697 31.1194 80.109 29.9629C79.5276 28.8065 79.2368 27.4755 79.2368 25.9702C79.2368 24.4454 79.5308 23.1081 80.1187 21.958C80.7131 20.8016 81.5562 19.9003 82.6481 19.2542C83.74 18.6017 85.0386 18.2754 86.544 18.2754C87.8426 18.2754 88.9797 18.5112 89.9553 18.9828C90.9308 19.4545 91.7029 20.1167 92.2714 20.9695C92.84 21.8224 93.1533 22.8238 93.2115 23.9738H89.3156C89.2058 23.2308 88.9151 22.6332 88.4434 22.1809C87.9783 21.7222 87.3677 21.4929 86.6118 21.4929C85.9722 21.4929 85.4133 21.6673 84.9352 22.0162C84.4636 22.3586 84.0953 22.8593 83.8304 23.5183C83.5655 24.1773 83.4331 24.9752 83.4331 25.912C83.4331 26.8618 83.5623 27.6694 83.8207 28.3348C84.0856 29.0003 84.4571 29.5075 84.9352 29.8563C85.4133 30.2052 85.9722 30.3797 86.6118 30.3797C87.0834 30.3797 87.5066 30.2827 87.8814 30.0889C88.2625 29.8951 88.5759 29.6141 88.8214 29.2458C89.0734 28.8711 89.2381 28.422 89.3156 27.8987H93.2115C93.1469 29.0358 92.8368 30.0372 92.2811 30.903C91.732 31.7623 90.9728 32.4342 90.0037 32.9187C89.0346 33.4033 87.8878 33.6456 86.5633 33.6456Z" fill="#033C75"/>
<path d="M102.639 33.6456C101.107 33.6456 99.7894 33.3355 98.6846 32.7152C97.5862 32.0885 96.7399 31.2034 96.1455 30.0599C95.5511 28.9098 95.2539 27.5498 95.2539 25.9799C95.2539 24.4487 95.5511 23.1048 96.1455 21.9483C96.7399 20.7919 97.5766 19.8906 98.6555 19.2445C99.7409 18.5984 101.014 18.2754 102.474 18.2754C103.456 18.2754 104.37 18.4337 105.216 18.7503C106.069 19.0604 106.812 19.5288 107.445 20.1555C108.085 20.7822 108.582 21.5704 108.938 22.5201C109.293 23.4634 109.471 24.5682 109.471 25.8345V26.9684H96.9014V24.4099H105.585C105.585 23.8155 105.455 23.289 105.197 22.8302C104.939 22.3715 104.58 22.013 104.121 21.7545C103.669 21.4896 103.143 21.3572 102.542 21.3572C101.915 21.3572 101.359 21.5026 100.875 21.7933C100.397 22.0776 100.022 22.462 99.7506 22.9465C99.4792 23.4246 99.3403 23.9576 99.3339 24.5456V26.9781C99.3339 27.7146 99.4696 28.351 99.7409 28.8872C100.019 29.4235 100.41 29.837 100.914 30.1277C101.417 30.4184 102.015 30.5638 102.706 30.5638C103.165 30.5638 103.585 30.4992 103.966 30.37C104.347 30.2408 104.674 30.0469 104.945 29.7885C105.216 29.5301 105.423 29.2135 105.565 28.8388L109.384 29.0907C109.19 30.0082 108.792 30.8093 108.192 31.4941C107.597 32.1725 106.828 32.7023 105.885 33.0835C104.948 33.4582 103.866 33.6456 102.639 33.6456Z" fill="#033C75"/>
<path d="M124.55 22.7139L120.771 22.9465C120.706 22.6235 120.567 22.3328 120.354 22.0743C120.141 21.8094 119.86 21.5995 119.511 21.4444C119.168 21.2829 118.758 21.2021 118.28 21.2021C117.64 21.2021 117.101 21.3378 116.662 21.6092C116.222 21.874 116.003 22.2294 116.003 22.6752C116.003 23.0305 116.145 23.331 116.429 23.5765C116.713 23.822 117.201 24.019 117.892 24.1676L120.587 24.7103C122.034 25.0075 123.113 25.4856 123.823 26.1446C124.534 26.8036 124.889 27.6694 124.889 28.7419C124.889 29.7174 124.602 30.5735 124.027 31.31C123.458 32.0465 122.677 32.6216 121.682 33.035C120.693 33.4421 119.553 33.6456 118.261 33.6456C116.29 33.6456 114.72 33.2353 113.551 32.4148C112.388 31.5878 111.706 30.4637 111.506 29.0423L115.567 28.8291C115.689 29.4299 115.987 29.8886 116.458 30.2052C116.93 30.5153 117.534 30.6704 118.27 30.6704C118.994 30.6704 119.576 30.5315 120.015 30.2537C120.461 29.9694 120.687 29.6044 120.693 29.1586C120.687 28.7838 120.528 28.477 120.218 28.2379C119.908 27.9924 119.43 27.805 118.784 27.6758L116.206 27.1622C114.753 26.8715 113.67 26.3675 112.96 25.6504C112.255 24.9332 111.903 24.019 111.903 22.9078C111.903 21.9516 112.162 21.1278 112.679 20.4365C113.202 19.7452 113.935 19.2122 114.879 18.8375C115.828 18.4628 116.94 18.2754 118.212 18.2754C120.092 18.2754 121.572 18.6727 122.651 19.4674C123.736 20.2621 124.369 21.3443 124.55 22.7139Z" fill="#033C75"/>
<path d="M139.874 22.7139L136.095 22.9465C136.03 22.6235 135.891 22.3328 135.678 22.0743C135.465 21.8094 135.184 21.5995 134.835 21.4444C134.493 21.2829 134.082 21.2021 133.604 21.2021C132.965 21.2021 132.425 21.3378 131.986 21.6092C131.547 21.874 131.327 22.2294 131.327 22.6752C131.327 23.0305 131.469 23.331 131.753 23.5765C132.038 23.822 132.525 24.019 133.217 24.1676L135.911 24.7103C137.358 25.0075 138.437 25.4856 139.148 26.1446C139.858 26.8036 140.214 27.6694 140.214 28.7419C140.214 29.7174 139.926 30.5735 139.351 31.31C138.783 32.0465 138.001 32.6216 137.006 33.035C136.017 33.4421 134.877 33.6456 133.585 33.6456C131.614 33.6456 130.044 33.2353 128.875 32.4148C127.712 31.5878 127.03 30.4637 126.83 29.0423L130.891 28.8291C131.013 29.4299 131.311 29.8886 131.782 30.2052C132.254 30.5153 132.858 30.6704 133.595 30.6704C134.318 30.6704 134.9 30.5315 135.339 30.2537C135.785 29.9694 136.011 29.6044 136.017 29.1586C136.011 28.7838 135.853 28.477 135.543 28.2379C135.232 27.9924 134.754 27.805 134.108 27.6758L131.53 27.1622C130.077 26.8715 128.995 26.3675 128.284 25.6504C127.58 24.9332 127.227 24.019 127.227 22.9078C127.227 21.9516 127.486 21.1278 128.003 20.4365C128.526 19.7452 129.259 19.2122 130.203 18.8375C131.152 18.4628 132.264 18.2754 133.536 18.2754C135.417 18.2754 136.896 18.6727 137.975 19.4674C139.06 20.2621 139.694 21.3443 139.874 22.7139Z" fill="#033C75"/>
<path d="M140.109 16.9671V13.5073H156.41V16.9671H150.334V33.3548H146.186V16.9671H140.109Z" fill="#033C75"/>
<path d="M159.017 33.3548V18.4692H163.145V33.3548H159.017ZM161.091 16.5504C160.477 16.5504 159.951 16.3469 159.511 15.9398C159.078 15.5263 158.862 15.0321 158.862 14.4571C158.862 13.8885 159.078 13.4007 159.511 12.9937C159.951 12.5802 160.477 12.3735 161.091 12.3735C161.705 12.3735 162.228 12.5802 162.661 12.9937C163.1 13.4007 163.32 13.8885 163.32 14.4571C163.32 15.0321 163.1 15.5263 162.661 15.9398C162.228 16.3469 161.705 16.5504 161.091 16.5504Z" fill="#033C75"/>
<path d="M166.452 33.3548V18.4692H170.387V21.0955H170.562C170.872 20.2233 171.389 19.5352 172.112 19.0313C172.836 18.5274 173.701 18.2754 174.709 18.2754C175.73 18.2754 176.599 18.5306 177.316 19.041C178.033 19.5449 178.512 20.2298 178.751 21.0955H178.906C179.209 20.2427 179.758 19.5611 180.553 19.0507C181.354 18.5338 182.301 18.2754 183.393 18.2754C184.782 18.2754 185.909 18.718 186.775 19.6031C187.647 20.4817 188.083 21.7287 188.083 23.3439V33.3548H183.964V24.1579C183.964 23.331 183.745 22.7107 183.305 22.2972C182.866 21.8837 182.317 21.677 181.658 21.677C180.908 21.677 180.324 21.916 179.904 22.3941C179.484 22.8658 179.274 23.4892 179.274 24.2645V33.3548H175.271V24.0707C175.271 23.3406 175.061 22.7592 174.642 22.3263C174.228 21.8934 173.682 21.677 173.004 21.677C172.545 21.677 172.132 21.7933 171.763 22.0259C171.401 22.252 171.114 22.5718 170.901 22.9853C170.688 23.3923 170.581 23.8704 170.581 24.4196V33.3548H166.452Z" fill="#033C75"/>
<path d="M198.128 33.6456C196.597 33.6456 195.279 33.3355 194.174 32.7152C193.076 32.0885 192.229 31.2034 191.635 30.0599C191.041 28.9098 190.743 27.5498 190.743 25.9799C190.743 24.4487 191.041 23.1048 191.635 21.9483C192.229 20.7919 193.066 19.8906 194.145 19.2445C195.23 18.5984 196.503 18.2754 197.963 18.2754C198.945 18.2754 199.86 18.4337 200.706 18.7503C201.559 19.0604 202.302 19.5288 202.935 20.1555C203.574 20.7822 204.072 21.5704 204.427 22.5201C204.783 23.4634 204.96 24.5682 204.96 25.8345V26.9684H192.391V24.4099H201.074C201.074 23.8155 200.945 23.289 200.687 22.8302C200.428 22.3715 200.07 22.013 199.611 21.7545C199.159 21.4896 198.632 21.3572 198.031 21.3572C197.404 21.3572 196.849 21.5026 196.364 21.7933C195.886 22.0776 195.511 22.462 195.24 22.9465C194.969 23.4246 194.83 23.9576 194.823 24.5456V26.9781C194.823 27.7146 194.959 28.351 195.23 28.8872C195.508 29.4235 195.899 29.837 196.403 30.1277C196.907 30.4184 197.505 30.5638 198.196 30.5638C198.655 30.5638 199.075 30.4992 199.456 30.37C199.837 30.2408 200.163 30.0469 200.435 29.7885C200.706 29.5301 200.913 29.2135 201.055 28.8388L204.873 29.0907C204.679 30.0082 204.282 30.8093 203.681 31.4941C203.087 32.1725 202.318 32.7023 201.375 33.0835C200.438 33.4582 199.356 33.6456 198.128 33.6456Z" fill="#033C75"/>
</g>
<defs>
<clipPath id="clip0_2106_84">
<rect width="205" height="47" fill="white"/>
</clipPath>
</defs>
</svg>
